<svg xmlns="http://www.w3.org/2000/svg"  viewBox="0 0 64 64" width="64px" height="64px"><linearGradient id="T79KyGGLyC4jdmAtQeHsua" x1="31.04" x2="31.04" y1="9" y2="51.5" gradientUnits="userSpaceOnUse" spreadMethod="reflect"><stop offset="0" stop-color="#1a6dff"/><stop offset="1" stop-color="#c822ff"/></linearGradient><path fill="url(#T79KyGGLyC4jdmAtQeHsua)" d="M47,19.92c-4.04,0-7.86,1.76-10.5,4.73c-1.14-1.28-2.51-2.32-4.01-3.11 c0.48-0.47,0.97-0.94,1.49-1.4c0.33-0.31,0.68-0.6,1.02-0.89c-0.57-1.24-1.36-2.36-2.3-3.32L42,9l-22.08,1.62L1,21.92h4v14.77 C4.4,37.56,4,39.15,4,41c0,2.76,0.9,5,2,5s2-2.24,2-5c0-1.85-0.4-3.44-1-4.31V21.92h5.26C12.1,22.7,12,23.51,12,24.35 c0,0.84,0.09,1.66,0.25,2.45c0.45-0.02,0.9-0.03,1.36-0.03h0.33c-1.27,2.12-2.02,4.59-2.02,7.23v17.5h7.16V34 c0-2.56,1.39-4.79,3.46-5.99c1.65,0.53,3,1.21,3.94,1.99c0.27-0.84,0.73-1.74,1.3-2.68c2.96,0.78,5.14,3.48,5.14,6.68v17.5h7.16V34 c0-3.82,3.1-6.92,6.92-6.92s6.92,3.1,6.92,6.92v17.5h7.16V34C61.08,26.24,54.76,19.92,47,19.92z M17.08,34v15.5h-3.16V34 c0-2.67,0.89-5.13,2.36-7.13c1.34,0.1,2.6,0.27,3.77,0.5C18.23,29,17.08,31.37,17.08,34z M23.99,19.92H8.25l12.29-7.34L35.3,11.5 L23.99,19.92z M59.08,49.5h-3.16V34c0-4.92-4-8.92-8.92-8.92s-8.92,4-8.92,8.92v15.5h-3.16V34c0-3.89-2.5-7.19-5.97-8.41 c0.62-0.84,1.32-1.69,2.1-2.55c2.3,1.07,4.21,2.83,5.45,5.02c2.08-3.66,6-6.14,10.5-6.14c6.66,0,12.08,5.42,12.08,12.08V49.5z"/><linearGradient id="T79KyGGLyC4jdmAtQeHsub" x1="21.775" x2="21.775" y1="11.5" y2="19.92" gradientUnits="userSpaceOnUse" spreadMethod="reflect"><stop offset="0" stop-color="#6dc7ff"/><stop offset="1" stop-color="#e6abff"/></linearGradient><path fill="url(#T79KyGGLyC4jdmAtQeHsub)" d="M35.3 11.5L23.99 19.92 8.25 19.92 20.54 12.58z"/></svg>